HIERARCHY
ROOT Hips
{
	OFFSET 0.000000 0.000000 0.000000
	CHANNELS 6 Xposition Yposition Zposition Xrotation Yrotation Zrotation
	JOINT Spine
	{
		OFFSET 0.000000 0.053497 0.080245
		CHANNELS 3 Xrotation Yrotation Zrotation
		JOINT Spine1
		{
			OFFSET 0.000000 0.018579 0.105368
			CHANNELS 3 Xrotation Yrotation Zrotation
			JOINT Spine2
			{
				OFFSET 0.000000 0.009325 0.106586
				CHANNELS 3 Xrotation Yrotation Zrotation
				JOINT Spine3
				{
					OFFSET 0.000000 0.000000 0.106993
					CHANNELS 3 Xrotation Yrotation Zrotation
					JOINT Neck
					{
						OFFSET 0.000000 -0.040122 0.280858
						CHANNELS 3 Xrotation Yrotation Zrotation
						JOINT Head
						{
							OFFSET 0.000000 -0.025546 0.144881
							CHANNELS 3 Xrotation Yrotation Zrotation
							End Site
							{
								OFFSET 0.000000 0.000000 0.000000
							}
						}
					}
					JOINT RightShoulder
					{
						OFFSET -0.032541 -0.054234 0.175720
						CHANNELS 3 Xrotation Yrotation Zrotation
						JOINT RightArm
						{
							OFFSET -0.161619 0.000000 0.000000
							CHANNELS 3 Xrotation Yrotation Zrotation
							JOINT RightForeArm
							{
								OFFSET -0.257104 0.000000 0.000000
								CHANNELS 3 Xrotation Yrotation Zrotation
								JOINT RightHand
								{
									OFFSET -0.273485 0.000000 0.000000
									CHANNELS 3 Xrotation Yrotation Zrotation
									JOINT RightHandEnd
									{
										OFFSET -0.070844 0.000000 0.000000
										CHANNELS 3 Xrotation Yrotation Zrotation
										End Site
										{
											OFFSET 0.000000 0.000000 0.000000
										}
									}
									JOINT RightHandThumb1
									{
										OFFSET -0.028338 -0.047230 -0.018892
										CHANNELS 3 Xrotation Yrotation Zrotation
										End Site
										{
											OFFSET 0.000000 0.000000 0.000000
										}
									}
								}
							}
						}
					}
					JOINT LeftShoulder
					{
						OFFSET 0.032541 -0.054234 0.175720
						CHANNELS 3 Xrotation Yrotation Zrotation
						JOINT LeftArm
						{
							OFFSET 0.161619 0.000000 0.000000
							CHANNELS 3 Xrotation Yrotation Zrotation
							JOINT LeftForeArm
							{
								OFFSET 0.257104 0.000000 0.000000
								CHANNELS 3 Xrotation Yrotation Zrotation
								JOINT LeftHand
								{
									OFFSET 0.273485 0.000000 0.000000
									CHANNELS 3 Xrotation Yrotation Zrotation
									JOINT LeftHandEnd
									{
										OFFSET 0.070844 0.000000 0.000000
										CHANNELS 3 Xrotation Yrotation Zrotation
										End Site
										{
											OFFSET 0.000000 0.000000 0.000000
										}
									}
									JOINT LeftHandThumb1
									{
										OFFSET 0.028338 -0.047230 -0.018892
										CHANNELS 3 Xrotation Yrotation Zrotation
										End Site
										{
											OFFSET 0.000000 0.000000 0.000000
										}
									}
								}
							}
						}
					}
				}
			}
		}
	}
	JOINT RightUpLeg
	{
		OFFSET -0.096537 0.000000 -0.028202
		CHANNELS 3 Xrotation Yrotation Zrotation
		JOINT RightLeg
		{
			OFFSET 0.000000 0.000000 -0.431842
			CHANNELS 3 Xrotation Yrotation Zrotation
			JOINT RightFoot
			{
				OFFSET 0.000000 0.000000 -0.456398
				CHANNELS 3 Xrotation Yrotation Zrotation
				JOINT RightToeBase
				{
					OFFSET 0.000000 -0.128905 -0.046918
					CHANNELS 3 Xrotation Yrotation Zrotation
					End Site
					{
						OFFSET 0.000000 0.000000 0.000000
					}
				}
			}
		}
	}
	JOINT LeftUpLeg
	{
		OFFSET 0.096537 0.000000 -0.028202
		CHANNELS 3 Xrotation Yrotation Zrotation
		JOINT LeftLeg
		{
			OFFSET 0.000000 0.000000 -0.431842
			CHANNELS 3 Xrotation Yrotation Zrotation
			JOINT LeftFoot
			{
				OFFSET 0.000000 0.000000 -0.456398
				CHANNELS 3 Xrotation Yrotation Zrotation
				JOINT LeftToeBase
				{
					OFFSET 0.000000 -0.128905 -0.046918
					CHANNELS 3 Xrotation Yrotation Zrotation
					End Site
					{
						OFFSET 0.000000 0.000000 0.000000
					}
				}
			}
		}
	}
}
MOTION
Frames: 7
Frame Time: 0.033333
0.194407 -0.176393 0.239235 -5.865700 -82.573700 -100.598200 -4.783400 -2.499000 0.354100 -2.891900 -1.848100 -0.014300 8.751100 0.166600 1.387100 4.182700 0.270500 0.775900 26.531700 3.407400 -1.874400 0.742800 -2.698200 6.149700 -6.704900 -5.748100 17.729200 -35.858800 -51.592300 20.532200 -0.000100 0.000100 102.326100 67.733500 13.006500 -17.841100 0.000000 0.000000 0.000000 0.000000 0.000000 0.000000 -6.403400 10.756000 -17.191800 -15.764000 51.716500 -46.037200 -0.000100 -0.000100 -100.053700 71.984000 -10.556300 29.912500 0.000000 0.000000 0.000000 0.000000 0.000000 0.000000 -7.451800 -6.132600 12.646200 19.100100 0.000000 0.000000 -28.743500 7.980100 -19.969600 -44.123100 0.000000 0.000000 -6.721000 0.549800 -16.265400 18.551900 0.000000 0.000000 -32.247500 21.923800 14.092700 -61.849600 0.000000 0.000000 
0.193451 -0.176533 0.241221 -6.204800 -82.807400 -100.680500 -4.729900 -2.475100 0.351900 -2.832000 -1.782400 -0.005700 8.596700 0.091800 1.269300 4.195300 0.262900 0.786700 26.711400 3.380400 -2.037600 0.840500 -2.740600 6.205700 -6.597400 -5.707600 17.590000 -35.999900 -51.639400 20.468200 -0.000100 0.000100 102.614800 67.879600 13.055600 -17.877900 0.000000 0.000000 0.000000 0.000000 0.000000 0.000000 -6.309700 10.723100 -17.299300 -15.780500 51.751300 -46.028500 -0.000100 -0.000100 -100.334700 72.369200 -10.362800 29.942900 0.000000 0.000000 0.000000 0.000000 0.000000 0.000000 -7.720900 -6.160700 12.556200 18.928200 0.000000 0.000000 -28.211500 8.376500 -20.304000 -43.689500 0.000000 0.000000 -7.099200 0.553700 -16.426300 18.516300 0.000000 0.000000 -31.749700 22.067100 13.979400 -61.767200 0.000000 0.000000 
0.192471 -0.176317 0.242727 -6.208700 -83.058000 -100.384500 -4.721800 -2.372600 0.329900 -2.787400 -1.681200 -0.000600 8.471100 -0.134200 1.052600 4.191900 0.182800 0.863000 26.867000 3.438200 -2.231700 0.864000 -2.809100 6.235000 -6.482200 -5.560400 17.437700 -36.108600 -51.774100 20.396600 -0.000100 0.000100 102.935400 68.004900 13.084600 -17.869800 0.000000 0.000000 0.000000 0.000000 0.000000 0.000000 -6.185800 10.730400 -17.307600 -15.701400 51.836500 -46.118100 -0.000100 -0.000100 -100.636400 73.429300 -9.937100 30.163600 0.000000 0.000000 0.000000 0.000000 0.000000 0.000000 -7.932700 -6.249700 12.588200 18.703400 0.000000 0.000000 -27.677500 8.783400 -20.680400 -43.408300 0.000000 0.000000 -7.486200 0.507200 -16.620000 18.537000 0.000000 0.000000 -31.317000 22.215700 13.859100 -61.786400 0.000000 0.000000 
0.191539 -0.175811 0.243906 -6.144900 -83.256700 -100.132700 -4.719800 -2.262300 0.317900 -2.768300 -1.607000 0.000100 8.419300 -0.327500 0.895900 4.198500 0.108500 0.930700 26.984200 3.496400 -2.337900 0.831600 -2.904100 6.284400 -6.440200 -5.432400 17.336100 -36.170100 -51.928700 20.304200 -0.000100 0.000100 103.236100 68.091300 13.081500 -17.850700 0.000000 0.000000 0.000000 0.000000 0.000000 0.000000 -6.085800 10.721000 -17.277000 -15.633000 51.903600 -46.209000 -0.000100 -0.000100 -100.911200 74.106400 -9.751900 30.313700 0.000000 0.000000 0.000000 0.000000 0.000000 0.000000 -8.047400 -6.350100 12.747300 18.437100 0.000000 0.000000 -27.209000 9.061000 -21.003700 -43.217100 0.000000 0.000000 -7.750100 0.407200 -16.748600 18.473800 0.000000 0.000000 -30.905300 22.377200 13.679900 -61.866900 0.000000 0.000000 
0.190790 -0.175143 0.245074 -6.401600 -83.440100 -100.279100 -4.768500 -2.177900 0.305700 -2.773200 -1.564500 0.000200 8.438100 -0.400500 0.826000 4.222800 0.090600 0.939900 27.067900 3.511600 -2.318700 0.823100 -2.989300 6.379300 -6.481000 -5.424600 17.314000 -36.167200 -52.026000 20.228700 -0.000100 0.000100 103.470500 68.154800 13.081900 -17.876000 0.000000 0.000000 0.000000 0.000000 0.000000 0.000000 -6.047800 10.685500 -17.259200 -15.643900 51.869800 -46.222700 -0.000100 -0.000100 -101.103500 74.454100 -9.670800 30.409900 0.000000 0.000000 0.000000 0.000000 0.000000 0.000000 -8.203800 -6.408700 12.811100 18.255300 0.000000 0.000000 -26.841500 9.179500 -21.157000 -43.142100 0.000000 0.000000 -7.997000 0.322300 -16.857300 18.399900 0.000000 0.000000 -30.488700 22.503200 13.475700 -62.112300 0.000000 0.000000 
0.190343 -0.174475 0.246238 -6.703100 -83.618900 -100.384400 -4.850900 -2.140600 0.298700 -2.800700 -1.511100 0.002000 8.488200 -0.413500 0.749500 4.253600 0.100900 0.920200 27.116800 3.447600 -2.276900 0.841700 -3.018500 6.482600 -6.565800 -5.482000 17.242000 -36.116300 -52.086100 20.216000 -0.000100 0.000100 103.621900 68.234300 13.105900 -17.935200 0.000000 0.000000 0.000000 0.000000 0.000000 0.000000 -6.062000 10.629800 -17.341400 -15.733400 51.781100 -46.143800 -0.000100 -0.000100 -101.200200 75.359800 -9.288200 30.729800 0.000000 0.000000 0.000000 0.000000 0.000000 0.000000 -8.446700 -6.430700 12.600500 18.228200 0.000000 0.000000 -26.589800 9.204100 -21.132500 -43.234900 0.000000 0.000000 -8.324800 0.293300 -17.067600 18.475900 0.000000 0.000000 -30.141900 22.546500 13.323800 -62.569500 0.000000 0.000000 
0.190223 -0.174013 0.247233 -6.690500 -83.780400 -100.052800 -4.936600 -2.138900 0.292000 -2.840400 -1.451600 0.002100 8.548600 -0.439000 0.644800 4.281000 0.102300 0.911400 27.135400 3.297500 -2.315600 0.830500 -2.986600 6.522600 -6.688400 -5.490600 17.042500 -36.078300 -52.171200 20.206100 -0.000100 0.000100 103.715100 68.345500 13.122100 -17.970900 0.000000 0.000000 0.000000 0.000000 0.000000 0.000000 -6.098600 10.548600 -17.542000 -15.868500 51.765400 -46.016400 -0.000100 -0.000100 -101.240900 76.483900 -9.000800 31.254500 0.000000 0.000000 0.000000 0.000000 0.000000 0.000000 -8.688900 -6.422500 12.237000 18.259200 0.000000 0.000000 -26.481200 9.149200 -20.988500 -43.438000 0.000000 0.000000 -8.677500 0.308900 -17.404800 18.656400 0.000000 0.000000 -29.961100 22.503700 13.298600 -62.978500 0.000000 0.000000 
